<svg id="Layer_1" data-name="Layer 1" xmlns="http://www.w3.org/2000/svg" viewBox="0 0 293.47 85.13"><defs><style>.cls-1{fill:#f04937;}.cls-2{fill:#fff;}</style></defs><rect class="cls-1" width="85.13" height="85.13"/><path class="cls-2" d="M47,67.48H25a1.11,1.11,0,0,1-1.11-1.11h0V38.16a1.14,1.14,0,0,1,.3-.77L42.42,18a1.11,1.11,0,0,1,.8-.35A1.22,1.22,0,0,1,44,18L61,35a1.12,1.12,0,1,1-1.59,1.58L43.26,20.37,26.05,38.6V65.25H47a1.12,1.12,0,0,1,.21,2.23Z"/><path class="cls-2" d="M47,67.73H25a1.36,1.36,0,0,1-1.37-1.35h0V38.16a1.36,1.36,0,0,1,.37-.94L42.3,17.83a1.35,1.35,0,0,1,1-.43,1.44,1.44,0,0,1,1,.4l17,17a1.38,1.38,0,0,1,0,1.94,1.4,1.4,0,0,1-1,.4h0a1.34,1.34,0,0,1-1-.41l-16-16-17,18V65H47a1.37,1.37,0,0,1,.23,2.73ZM43.21,17.9a.8.8,0,0,0-.6.27L24.3,37.56a.88.88,0,0,0-.23.6V66.37a.86.86,0,0,0,.86.86H47a.87.87,0,0,0,.19-1.73.6.6,0,0,0-.19,0H25.8v-27L43.25,20,59.58,36.38a.87.87,0,0,0,.61.26h0a.83.83,0,0,0,.61-.26.88.88,0,0,0,0-1.22l-17-17A.94.94,0,0,0,43.21,17.9Z"/><path class="cls-2" d="M109,36.3a7.65,7.65,0,0,0,.14,1.51,2.39,2.39,0,0,0,1.46,1.86,3.84,3.84,0,0,0,1.54.26,3,3,0,0,0,2-.71A2.66,2.66,0,0,0,115,37a4,4,0,0,0-.22-1.37,2.82,2.82,0,0,0-.71-1,4.83,4.83,0,0,0-1.3-.84c-.65-.29-1.32-.55-2-.78A16.39,16.39,0,0,1,108,31.85a7.48,7.48,0,0,1-1.93-1.47,5.33,5.33,0,0,1-1.14-1.95,8.5,8.5,0,0,1-.36-2.55,6.59,6.59,0,0,1,2-5.22A7.79,7.79,0,0,1,111.84,19a11.54,11.54,0,0,1,2.92.34,6.21,6.21,0,0,1,2.31,1.12,5.26,5.26,0,0,1,1.52,2,6.83,6.83,0,0,1,.55,2.89V26h-4.56a4.78,4.78,0,0,0-.59-2.59,2.21,2.21,0,0,0-2-.91,3.32,3.32,0,0,0-1.32.24,2.12,2.12,0,0,0-.84.61,2,2,0,0,0-.43.87,4.21,4.21,0,0,0-.12,1,3.46,3.46,0,0,0,.46,1.83,4,4,0,0,0,2,1.37L115.41,30a11.17,11.17,0,0,1,2.21,1.24A6.09,6.09,0,0,1,119,32.59a4.7,4.7,0,0,1,.71,1.64,9,9,0,0,1,.2,2c0,2.48-.73,4.29-2.17,5.42a9.45,9.45,0,0,1-6,1.7q-4,0-5.76-1.75a6.81,6.81,0,0,1-1.73-5v-1H109Z"/><path class="cls-2" d="M141,19.41,147.22,43h-4.95l-1.09-5h-6.27l-1.09,5h-4.95l6.24-23.56Zm-.62,14.68-2.3-10.59H138l-2.27,10.59Z"/><path class="cls-2" d="M165.9,19.41a6.62,6.62,0,0,1,4.62,1.5,5.87,5.87,0,0,1,1.65,4.57,7.06,7.06,0,0,1-1,3.88,4.49,4.49,0,0,1-3,1.93v.06a4.34,4.34,0,0,1,2.61,1.16,4.89,4.89,0,0,1,1,2.87c0,.44.08.92.1,1.44s0,1.09.07,1.73a22.7,22.7,0,0,0,.19,2.87,1.85,1.85,0,0,0,.86,1.35V43h-5.15a2.64,2.64,0,0,1-.46-1.14c-.06-.43-.11-.87-.13-1.33l0-4.53a3.67,3.67,0,0,0-.7-2.17,2.54,2.54,0,0,0-2.11-.8h-2.54V43h-4.75V19.41ZM163.85,29.7a3.86,3.86,0,0,0,2.64-.8,3.48,3.48,0,0,0,.93-2.73q0-3.26-3.3-3.26h-2.25V29.7Z"/><path class="cls-2" d="M192.49,19.41a6.58,6.58,0,0,1,4.62,1.5,5.87,5.87,0,0,1,1.66,4.57,7.06,7.06,0,0,1-1,3.88,4.49,4.49,0,0,1-3,1.93v.06a4.31,4.31,0,0,1,2.6,1.16,4.89,4.89,0,0,1,1,2.87c0,.44.07.92.1,1.44s0,1.09.06,1.73c.05,1.25.11,2.21.2,2.87a1.8,1.8,0,0,0,.86,1.35V43h-5.15a2.64,2.64,0,0,1-.46-1.14,12.34,12.34,0,0,1,0-1.36l-.18-4.5a3.67,3.67,0,0,0-.7-2.17A2.54,2.54,0,0,0,191,33h-2.54V43h-4.75V19.41Zm-2,10.29a3.91,3.91,0,0,0,2.64-.8,3.52,3.52,0,0,0,.92-2.73q0-3.26-3.3-3.26h-2.24V29.7Z"/><path class="cls-2" d="M220.78,19.41,227,43h-4.95L221,38h-6.3l-1.09,5h-5l6.24-23.56Zm-.63,14.68L217.87,23.5h-.06l-2.28,10.59Z"/><path class="cls-2" d="M244.73,23.3h-8.08V19.41h13.56V23L241.4,39.08h8.94V43H236.05V39.51Z"/><path class="cls-2" d="M261.27,19.41H266V43h-4.75Z"/><path class="cls-2" d="M289,35.55h.06V19.41h4.36V43H288l-5.81-16.5h-.07V43H277.8V19.41h5.48Z"/><path class="cls-2" d="M110.23,58.71a1.39,1.39,0,0,0-1.36-.71,1.36,1.36,0,0,0-.89.29,1.83,1.83,0,0,0-.54.94,7.47,7.47,0,0,0-.29,1.7c-.05.7-.08,1.55-.08,2.57a23,23,0,0,0,.12,2.62,5.87,5.87,0,0,0,.33,1.55,1.49,1.49,0,0,0,.59.74,1.71,1.71,0,0,0,.8.19,1.94,1.94,0,0,0,.71-.13,1.25,1.25,0,0,0,.57-.52,3.27,3.27,0,0,0,.38-1.1,9.76,9.76,0,0,0,.14-1.87h2.88a13.51,13.51,0,0,1-.18,2.2,5,5,0,0,1-.67,1.82,3.26,3.26,0,0,1-1.38,1.22,5.26,5.26,0,0,1-2.31.44,5.42,5.42,0,0,1-2.57-.52,3.51,3.51,0,0,1-1.48-1.5,6.82,6.82,0,0,1-.66-2.34,30.08,30.08,0,0,1,0-6A6.61,6.61,0,0,1,105,58a3.58,3.58,0,0,1,1.48-1.53,5.19,5.19,0,0,1,2.57-.55,5,5,0,0,1,2.43.5,3.34,3.34,0,0,1,1.34,1.27,4.44,4.44,0,0,1,.54,1.66,11.62,11.62,0,0,1,.12,1.67h-2.89A5.34,5.34,0,0,0,110.23,58.71Z"/><path class="cls-2" d="M121.2,60.31a6.87,6.87,0,0,1,.66-2.35,3.58,3.58,0,0,1,1.48-1.53,6.33,6.33,0,0,1,5.15,0A3.63,3.63,0,0,1,130,58a6.64,6.64,0,0,1,.65,2.35,30.08,30.08,0,0,1,0,6,6.59,6.59,0,0,1-.65,2.34,3.57,3.57,0,0,1-1.48,1.5,6.67,6.67,0,0,1-5.15,0,3.51,3.51,0,0,1-1.48-1.5,6.82,6.82,0,0,1-.66-2.34c-.09-.91-.14-1.91-.14-3S121.11,61.22,121.2,60.31Zm2.8,5.44a7.49,7.49,0,0,0,.27,1.64,1.92,1.92,0,0,0,.61.92,2,2,0,0,0,2,0,1.92,1.92,0,0,0,.61-.92,6.47,6.47,0,0,0,.27-1.64c0-.68.08-1.49.08-2.45a22,22,0,0,0-.08-2.44,6.47,6.47,0,0,0-.27-1.64,1.88,1.88,0,0,0-.61-.93,2,2,0,0,0-2,0,1.77,1.77,0,0,0-.61.93,7.49,7.49,0,0,0-.27,1.64c0,.66-.07,1.48-.07,2.44S124,65.07,124,65.75Z"/><path class="cls-2" d="M145.4,65.94h0V56.16H148V70.44H144.8l-3.53-10h0v10H138.6V56.16h3.32Z"/><path class="cls-2" d="M158.52,66.4a4,4,0,0,0,.08.91,1.48,1.48,0,0,0,.88,1.13,2.46,2.46,0,0,0,.93.16,1.88,1.88,0,0,0,1.2-.43,1.64,1.64,0,0,0,.53-1.33A2.18,2.18,0,0,0,162,66a1.51,1.51,0,0,0-.43-.63,2.75,2.75,0,0,0-.79-.51,8.9,8.9,0,0,0-1.21-.47,12.69,12.69,0,0,1-1.66-.7,5.1,5.1,0,0,1-1.17-.89,3.17,3.17,0,0,1-.68-1.18,4.78,4.78,0,0,1-.23-1.55A4,4,0,0,1,157,56.92a4.65,4.65,0,0,1,3.23-1,6.6,6.6,0,0,1,1.77.21,3.56,3.56,0,0,1,1.41.68,3.19,3.19,0,0,1,.92,1.2,4.19,4.19,0,0,1,.33,1.75v.4h-2.77a3,3,0,0,0-.35-1.57,1.34,1.34,0,0,0-1.2-.55,1.83,1.83,0,0,0-.8.14,1.28,1.28,0,0,0-.52.37,1.54,1.54,0,0,0-.26.53,3.18,3.18,0,0,0-.07.62,2.16,2.16,0,0,0,.28,1.11,2.59,2.59,0,0,0,1.2.83l2.22,1a7.06,7.06,0,0,1,1.34.75,3.49,3.49,0,0,1,.83.84,2.81,2.81,0,0,1,.44,1,6,6,0,0,1,.12,1.2,3.92,3.92,0,0,1-1.32,3.29,5.82,5.82,0,0,1-3.64,1,4.79,4.79,0,0,1-3.49-1.06,4.09,4.09,0,0,1-1-3V66h2.88Z"/><path class="cls-2" d="M181.06,58.52h-3.12V70.44h-2.88V58.52h-3.12V56.16h9.12Z"/><path class="cls-2" d="M193.73,56.16a4,4,0,0,1,2.8.91,3.56,3.56,0,0,1,1,2.77,4.3,4.3,0,0,1-.58,2.35,2.68,2.68,0,0,1-1.8,1.17h0a2.55,2.55,0,0,1,1.58.7,2.91,2.91,0,0,1,.62,1.74,7.07,7.07,0,0,0,.06.87v1a9.49,9.49,0,0,0,.12,1.74,1.11,1.11,0,0,0,.52.82v.12H195a1.6,1.6,0,0,1-.28-.69c0-.26-.06-.53-.08-.81l-.08-2.74a2.16,2.16,0,0,0-.42-1.32,1.54,1.54,0,0,0-1.28-.48h-1.54v6h-2.88V56.16Zm-1.24,6.24a2.36,2.36,0,0,0,1.6-.49,2.08,2.08,0,0,0,.56-1.65,1.76,1.76,0,0,0-1.48-2,1.51,1.51,0,0,0-.52,0h-1.36V62.4Z"/><path class="cls-2" d="M208.75,66.12a6.73,6.73,0,0,0,.07,1,2.39,2.39,0,0,0,.26.78,1.44,1.44,0,0,0,.52.52,1.71,1.71,0,0,0,.83.19,1.65,1.65,0,0,0,.84-.19,1.34,1.34,0,0,0,.51-.52,2,2,0,0,0,.26-.78,6.73,6.73,0,0,0,.07-1v-10H215v10a5.59,5.59,0,0,1-.38,2.25,3.34,3.34,0,0,1-2.46,2.11,8.11,8.11,0,0,1-1.7.18,9.69,9.69,0,0,1-1.7-.16,3.71,3.71,0,0,1-1.46-.65,3.47,3.47,0,0,1-1-1.39,6,6,0,0,1-.38-2.34v-10h2.88Z"/><path class="cls-2" d="M228.66,58.71a1.59,1.59,0,0,0-2.24-.42,2,2,0,0,0-.55.94,9,9,0,0,0-.28,1.7c-.05.7-.08,1.55-.08,2.57a25.51,25.51,0,0,0,.11,2.62,6.32,6.32,0,0,0,.34,1.55,1.51,1.51,0,0,0,.58.74,1.75,1.75,0,0,0,.81.19,1.94,1.94,0,0,0,.71-.13,1.25,1.25,0,0,0,.57-.52,3.27,3.27,0,0,0,.38-1.1,9.76,9.76,0,0,0,.14-1.87H232a13.51,13.51,0,0,1-.18,2.2,5,5,0,0,1-.67,1.82,3.26,3.26,0,0,1-1.38,1.22,5.26,5.26,0,0,1-2.31.44,5.48,5.48,0,0,1-2.58-.52,3.55,3.55,0,0,1-1.47-1.5,6.82,6.82,0,0,1-.66-2.34,30.07,30.07,0,0,1,0-6,6.66,6.66,0,0,1,.66-2.35,3.62,3.62,0,0,1,1.47-1.53,5.25,5.25,0,0,1,2.58-.55,5,5,0,0,1,2.43.5,3.26,3.26,0,0,1,1.33,1.27,4.08,4.08,0,0,1,.55,1.66,13.26,13.26,0,0,1,.11,1.67H229A5.13,5.13,0,0,0,228.66,58.71Z"/><path class="cls-2" d="M248.15,58.52H245V70.44h-2.88V58.52H239V56.16h9.12Z"/><path class="cls-2" d="M255.65,56.16h2.88V70.44h-2.88Z"/><path class="cls-2" d="M266.64,60.31A6.66,6.66,0,0,1,267.3,58a3.62,3.62,0,0,1,1.47-1.53,6.35,6.35,0,0,1,5.16,0A3.62,3.62,0,0,1,275.4,58a6.66,6.66,0,0,1,.66,2.35,30.08,30.08,0,0,1,0,6,6.82,6.82,0,0,1-.66,2.34,3.55,3.55,0,0,1-1.47,1.5,6.69,6.69,0,0,1-5.16,0,3.55,3.55,0,0,1-1.47-1.5,6.82,6.82,0,0,1-.66-2.34,30.07,30.07,0,0,1,0-6Zm2.8,5.44a7,7,0,0,0,.28,1.64,1.83,1.83,0,0,0,.6.92,1.7,1.7,0,0,0,1,.29,1.68,1.68,0,0,0,1-.29,1.83,1.83,0,0,0,.6-.92,6.48,6.48,0,0,0,.28-1.64c.05-.68.07-1.49.07-2.45s0-1.78-.07-2.44a6.48,6.48,0,0,0-.28-1.64,1.82,1.82,0,0,0-.6-.93,1.87,1.87,0,0,0-2,0,1.82,1.82,0,0,0-.6.93,7,7,0,0,0-.28,1.64c0,.66-.07,1.48-.07,2.44S269.4,65.07,269.44,65.75Z"/><path class="cls-2" d="M290.83,65.94h0V56.16h2.64V70.44h-3.28l-3.52-10h0v10H284V56.16h3.32Z"/></svg>